<svg xmlns="http://www.w3.org/2000/svg" version="1.1" xmlns:xlink="http://www.w3.org/1999/xlink" width="512" height="512" x="0" y="0" viewBox="0 0 24 24" style="enable-background:new 0 0 512 512" xml:space="preserve" class=""><g><path fill="#4c9eaf" d="M21.25 0H2.75A2.752 2.752 0 0 0 0 2.75v18.5A2.752 2.752 0 0 0 2.75 24h18.5A2.752 2.752 0 0 0 24 21.25V2.75A2.752 2.752 0 0 0 21.25 0z" opacity="1" data-original="#4caf50" class=""></path><path fill="#fafafa" d="M12 5a1 1 0 1 1 0 2 1 1 0 0 1 0-2zM14.25 19h-4.5a1 1 0 1 1 0-2H11v-6h-.75a1 1 0 1 1 0-2H12a1 1 0 0 1 1 1v7h1.25a1 1 0 1 1 0 2z" opacity="1" data-original="#fafafa" class=""></path><path fill="#428198" d="M12 0H2.75A2.752 2.752 0 0 0 0 2.75v18.5A2.752 2.752 0 0 0 2.75 24H12v-5H9.75a1 1 0 1 1 0-2H11v-6h-.75a1 1 0 1 1 0-2H12V7a1 1 0 1 1 0-2z" opacity="1" data-original="#429846" class=""></path><g fill="#dadada"><path d="M12 5a1 1 0 1 0 0 2zM12 9h-1.75a1 1 0 1 0 0 2H11v6H9.75a1 1 0 1 0 0 2H12z" fill="#dadada" opacity="1" data-original="#dadada" class=""></path></g></g></svg>