<svg width="50" height="50" viewBox="0 0 50 50" fill="none" xmlns="http://www.w3.org/2000/svg">
<g clip-path="url(#clip0_1_21)">
<path fill-rule="evenodd" clip-rule="evenodd" d="M0.00156403 0H34.4765V21.6588C33.6101 21.814 32.95 22.5703 32.95 23.4793V23.9812H28.7101V23.4793C28.7101 22.4585 27.8783 21.628 26.8559 21.628H25.7249C24.7025 21.628 23.8706 22.4585 23.8706 23.4793V23.9812H22.7044C20.9591 23.9812 19.539 25.3098 19.539 26.9428V48.7008C19.539 49.1665 19.6546 49.6073 19.8598 49.9999H0.00156403V0ZM49.9984 48.7008V31.6582H21.2044V48.7008C21.2044 49.4051 21.8912 49.9999 22.7043 49.9999H48.4985C49.3256 49.9999 49.9983 49.4171 49.9984 48.7008ZM34.8042 23.2934C34.7019 23.2934 34.6152 23.3786 34.6152 23.4794V26.7657C34.6152 26.8665 34.7018 26.9517 34.8042 26.9517H35.9349C36.0373 26.9517 36.1238 26.8666 36.1238 26.7657V23.4794C36.1238 23.3786 36.0373 23.2934 35.9349 23.2934H34.8042ZM25.7248 26.9516H26.8557C26.9581 26.9516 27.0445 26.8665 27.0445 26.7656V23.4793C27.0445 23.3784 26.958 23.2933 26.8557 23.2933H25.7248C25.6224 23.2933 25.5359 23.3785 25.5359 23.4793V26.7656C25.5359 26.8664 25.6225 26.9516 25.7248 26.9516ZM37.7894 25.6466V26.7656C37.7894 27.7863 36.9574 28.6169 35.935 28.6169H34.8043C33.7817 28.6169 32.9499 27.7864 32.9499 26.7656V25.6466H28.71V26.7656C28.71 27.7863 27.8781 28.6169 26.8558 28.6169H25.7249C24.7024 28.6169 23.8706 27.7864 23.8706 26.7656V25.6466H22.7044C21.8773 25.6466 21.2045 26.2281 21.2045 26.9428V29.9928H49.9983V26.9428C49.9983 26.2281 49.3255 25.6466 48.4986 25.6466H46.8689V26.7656C46.8689 27.7863 46.037 28.6169 45.0146 28.6169H43.8837C42.8612 28.6169 42.0295 27.7864 42.0295 26.7656V25.6466H37.7894ZM43.6947 26.7656C43.6947 26.8665 43.7813 26.9516 43.8836 26.9516H45.0145C45.1169 26.9516 45.2034 26.8665 45.2034 26.7656V23.4793C45.2034 23.3784 45.1169 23.2933 45.0145 23.2933H43.8836C43.7812 23.2933 43.6947 23.3785 43.6947 23.4793V26.7656ZM44.8668 45.7806V43.1735H42.2568V45.7806H44.8668ZM45.6994 41.508C45.9203 41.508 46.1321 41.5957 46.2882 41.7519C46.4444 41.9081 46.5321 42.1199 46.5321 42.3407V46.6133C46.5321 46.8341 46.4444 47.0459 46.2882 47.2021C46.1321 47.3583 45.9203 47.446 45.6994 47.446H41.424C41.2032 47.446 40.9914 47.3583 40.8352 47.2021C40.679 47.0459 40.5913 46.8341 40.5913 46.6133V42.3407C40.5913 42.1199 40.679 41.9081 40.8352 41.7519C40.9914 41.5957 41.2032 41.508 41.424 41.508H45.6994ZM44.8668 38.4846V35.8774H42.2568V38.4846H44.8668ZM45.6994 34.2121C45.9203 34.2121 46.132 34.2999 46.2882 34.456C46.4444 34.6122 46.5321 34.824 46.5321 35.0448V39.3174C46.5321 39.5382 46.4444 39.75 46.2882 39.9062C46.1321 40.0624 45.9203 40.1501 45.6994 40.1501H41.424C41.2032 40.1501 40.9914 40.0624 40.8352 39.9062C40.679 39.75 40.5913 39.5382 40.5913 39.3174V35.0448C40.5913 34.824 40.679 34.6122 40.8352 34.456C40.9914 34.2998 41.2032 34.2121 41.424 34.2121H45.6994ZM36.8326 45.7806V43.1735H34.2256V45.7806H36.8326ZM37.6653 41.508C37.8862 41.508 38.0979 41.5958 38.2541 41.7519C38.4102 41.9081 38.498 42.1199 38.498 42.3407V46.6133C38.498 46.8341 38.4102 47.0459 38.2541 47.2021C38.0979 47.3582 37.8862 47.446 37.6653 47.446H33.3928C33.1719 47.446 32.9601 47.3583 32.804 47.2021C32.6478 47.0459 32.5601 46.8341 32.5601 46.6133V42.3407C32.5601 42.1199 32.6478 41.9081 32.804 41.7519C32.9601 41.5957 33.1719 41.508 33.3928 41.508H37.6653ZM28.9491 45.7806V43.1735H26.339V45.7806H28.9491ZM29.7817 41.508C30.0026 41.508 30.2144 41.5958 30.3705 41.7519C30.5266 41.9081 30.6144 42.1199 30.6144 42.3407V46.6133C30.6144 46.8341 30.5266 47.0459 30.3705 47.2021C30.2144 47.3582 30.0026 47.446 29.7817 47.446H25.5063C25.2854 47.446 25.0736 47.3583 24.9174 47.2021C24.7613 47.0459 24.6735 46.8341 24.6735 46.6133V42.3407C24.6735 42.1199 24.7613 41.9081 24.9174 41.7519C25.0736 41.5957 25.2854 41.508 25.5063 41.508H29.7817ZM36.8326 38.4846V35.8774H34.2256V38.4846H36.8326ZM37.6653 34.2121C37.8862 34.2121 38.0979 34.2999 38.2541 34.456C38.4102 34.6122 38.498 34.824 38.498 35.0448V39.3174C38.498 39.5382 38.4102 39.75 38.2541 39.9062C38.0979 40.0623 37.8862 40.1501 37.6653 40.1501H33.3928C33.1719 40.1501 32.9601 40.0624 32.804 39.9062C32.6478 39.75 32.5601 39.5382 32.5601 39.3174V35.0448C32.5601 34.824 32.6478 34.6122 32.804 34.456C32.9601 34.2998 33.1719 34.2121 33.3928 34.2121H37.6653ZM28.9491 38.4846V35.8774H26.339V38.4846H28.9491ZM30.6145 35.0447V39.3173C30.6145 39.5381 30.5267 39.7499 30.3706 39.9061C30.2144 40.0622 30.0027 40.15 29.7818 40.15H25.5063C25.2855 40.15 25.0737 40.0623 24.9175 39.9061C24.7614 39.7499 24.6736 39.5381 24.6736 39.3173V35.0447C24.6736 34.8239 24.7614 34.6121 24.9175 34.4559C25.0737 34.2997 25.2855 34.212 25.5063 34.212H29.7818C30.0027 34.2121 30.2144 34.2998 30.3706 34.456C30.5267 34.6121 30.6144 34.8239 30.6145 35.0447ZM20.3716 9.58418H31.199C31.6589 9.58418 32.0316 9.21143 32.0316 8.75146C32.0316 8.2915 31.6588 7.91875 31.199 7.91875H20.3716C19.9117 7.91875 19.5389 8.2915 19.5389 8.75146C19.5389 9.21143 19.9117 9.58418 20.3716 9.58418ZM20.3716 5.11094H31.199C31.4183 5.10856 31.6278 5.01979 31.782 4.86389C31.9362 4.708 32.0227 4.49756 32.0227 4.27827C32.0227 4.05898 31.9362 3.84855 31.782 3.69265C31.6278 3.53675 31.4183 3.44798 31.199 3.44561H20.3716C20.2615 3.44441 20.1522 3.46507 20.0502 3.50638C19.9481 3.54769 19.8552 3.60883 19.7769 3.68627C19.6987 3.76371 19.6365 3.85591 19.5941 3.95752C19.5517 4.05914 19.5299 4.16816 19.5299 4.27827C19.5299 4.38838 19.5517 4.4974 19.5941 4.59902C19.6365 4.70064 19.6987 4.79283 19.7769 4.87027C19.8552 4.94771 19.9481 5.00885 20.0502 5.05016C20.1522 5.09147 20.2615 5.11213 20.3716 5.11094ZM15.0615 38.349L11.0423 41.9946L9.70449 40.659C9.37901 40.334 8.85166 40.3344 8.52695 40.6598C8.44968 40.7371 8.3884 40.829 8.34662 40.93C8.30484 41.0311 8.28338 41.1394 8.28347 41.2487C8.28355 41.3581 8.30517 41.4663 8.3471 41.5673C8.38903 41.6683 8.45044 41.7601 8.52783 41.8373L10.4264 43.733C10.5036 43.8103 10.5954 43.8716 10.6963 43.9134C10.7973 43.9552 10.9056 43.9767 11.0148 43.9766C11.2217 43.9768 11.4211 43.8998 11.5741 43.7606L13.123 42.3557V44.8888H5.1124V37.6077H13.9557C14.1765 37.6077 14.3883 37.52 14.5445 37.3638C14.7006 37.2077 14.7884 36.9958 14.7884 36.775C14.7884 36.5541 14.7006 36.3423 14.5445 36.1862C14.3883 36.03 14.1765 35.9423 13.9557 35.9423H4.27969C4.05884 35.9423 3.84704 36.03 3.69087 36.1862C3.53471 36.3423 3.44697 36.5541 3.44697 36.775V45.7215C3.44697 45.9423 3.53471 46.1541 3.69087 46.3103C3.84704 46.4665 4.05884 46.5542 4.27969 46.5542H13.9557C14.1765 46.5542 14.3883 46.4665 14.5445 46.3103C14.7006 46.1541 14.7884 45.9423 14.7884 45.7215V40.8451L16.1802 39.5827C16.2612 39.5093 16.3269 39.4206 16.3736 39.3217C16.4204 39.2229 16.4472 39.1158 16.4525 39.0066C16.4578 38.8974 16.4416 38.7882 16.4047 38.6852C16.3678 38.5823 16.3111 38.4876 16.2376 38.4066C15.9284 38.0658 15.4019 38.0401 15.0615 38.349ZM4.27969 30.3059H13.9557C14.1765 30.3059 14.3883 30.2181 14.5445 30.062C14.7006 29.9058 14.7884 29.694 14.7884 29.4731V24.5977L16.1806 23.3341C16.2615 23.2606 16.3272 23.1719 16.3739 23.073C16.4206 22.9741 16.4473 22.867 16.4526 22.7578C16.4579 22.6485 16.4416 22.5394 16.4047 22.4364C16.3677 22.3335 16.3109 22.2389 16.2374 22.1579C16.1639 22.0769 16.0752 22.0112 15.9763 21.9645C15.8774 21.9178 15.7703 21.8911 15.6611 21.8858C15.5519 21.8805 15.4427 21.8968 15.3397 21.9338C15.2368 21.9707 15.1422 22.0276 15.0612 22.1011L11.0425 25.7487L9.70488 24.4111C9.62757 24.3338 9.53578 24.2725 9.43476 24.2306C9.33374 24.1888 9.22546 24.1672 9.11611 24.1672C9.00677 24.1672 8.89849 24.1888 8.79747 24.2306C8.69645 24.2725 8.60466 24.3338 8.52735 24.4111C8.45002 24.4884 8.38869 24.5802 8.34684 24.6813C8.305 24.7823 8.28346 24.8906 8.28346 24.9999C8.28346 25.1092 8.305 25.2175 8.34684 25.3185C8.38869 25.4196 8.45002 25.5114 8.52735 25.5887L10.4259 27.4873C10.5031 27.5648 10.5949 27.6262 10.696 27.6681C10.797 27.7099 10.9054 27.7314 11.0147 27.7312C11.2217 27.7315 11.4213 27.6544 11.5743 27.5151L13.1229 26.1095V28.6406H5.1124V21.3594H13.9557C14.1765 21.3594 14.3883 21.2716 14.5445 21.1155C14.7006 20.9593 14.7884 20.7475 14.7884 20.5267C14.7884 20.3058 14.7006 20.094 14.5445 19.9378C14.3883 19.7817 14.1765 19.6939 13.9557 19.6939H4.27969C4.05884 19.6939 3.84704 19.7817 3.69087 19.9378C3.53471 20.094 3.44697 20.3058 3.44697 20.5267V29.4731C3.44697 29.694 3.53471 29.9058 3.69087 30.062C3.84704 30.2181 4.05884 30.3059 4.27969 30.3059ZM4.27969 14.0604H13.9557C14.1765 14.0604 14.3883 13.9726 14.5445 13.8165C14.7006 13.6603 14.7884 13.4485 14.7884 13.2276V8.34932L16.1806 7.08574C16.2615 7.01225 16.3272 6.92353 16.3739 6.82464C16.4206 6.72576 16.4473 6.61865 16.4526 6.50943C16.4579 6.40021 16.4416 6.29102 16.4047 6.1881C16.3677 6.08517 16.3109 5.99053 16.2374 5.90957C16.1639 5.82859 16.0752 5.76289 15.9763 5.71621C15.8774 5.66953 15.7703 5.64278 15.6611 5.63751C15.5519 5.63223 15.4427 5.64852 15.3398 5.68545C15.2368 5.72238 15.1422 5.77922 15.0612 5.85273L11.0421 9.50078L9.70449 8.16533C9.37901 7.84043 8.85166 7.84082 8.52695 8.16631C8.44968 8.24368 8.3884 8.33551 8.34662 8.43656C8.30484 8.53762 8.28338 8.64591 8.28347 8.75526C8.28355 8.86461 8.30517 8.97287 8.3471 9.07386C8.38903 9.17485 8.45044 9.2666 8.52783 9.34385L10.4264 11.2396C10.5036 11.3168 10.5954 11.3781 10.6964 11.4199C10.7973 11.4617 10.9056 11.4831 11.0148 11.483C11.2218 11.4832 11.4213 11.4061 11.5744 11.2669L13.123 9.86123V12.3953H5.1124V5.11113H13.9557C14.0658 5.11233 14.175 5.09167 14.2771 5.05036C14.3792 5.00905 14.472 4.9479 14.5503 4.87046C14.6286 4.79303 14.6907 4.70083 14.7331 4.59921C14.7756 4.4976 14.7974 4.38858 14.7974 4.27847C14.7974 4.16835 14.7756 4.05934 14.7331 3.95772C14.6907 3.8561 14.6286 3.76391 14.5503 3.68647C14.472 3.60903 14.3792 3.54789 14.2771 3.50658C14.175 3.46527 14.0658 3.44461 13.9557 3.4458H4.27969C4.05884 3.4458 3.84704 3.53353 3.69087 3.6897C3.53471 3.84586 3.44697 4.05767 3.44697 4.27852V13.2279C3.44705 13.4487 3.53482 13.6605 3.69097 13.8166C3.84713 13.9727 4.05889 14.0604 4.27969 14.0604Z" fill="#3498DB"/>
</g>
<defs>
<clipPath id="clip0_1_21">
<rect width="50" height="50" fill="white"/>
</clipPath>
</defs>
</svg>
