<svg width="50" height="50" viewBox="0 0 50 50" fill="none" xmlns="http://www.w3.org/2000/svg">
<path fill-rule="evenodd" clip-rule="evenodd" d="M7.44882 2.83911H9.11137C9.57313 2.83911 9.9498 3.21578 9.9498 3.67754V7.9249C9.9498 8.38666 9.57313 8.76333 9.11137 8.76333H7.44882C6.98705 8.76333 6.61048 8.38676 6.61048 7.9249V3.67754C6.61048 3.21578 6.98705 2.83911 7.44882 2.83911ZM35.4161 2.83911H37.0787C37.5404 2.83911 37.9171 3.21578 37.9171 3.67754V7.9249C37.9171 8.38666 37.5404 8.76333 37.0787 8.76333H35.4161C34.9544 8.76333 34.5778 8.38676 34.5778 7.9249V3.67754C34.5778 3.21578 34.9544 2.83911 35.4161 2.83911ZM26.0937 2.83911H27.7563C28.218 2.83911 28.5948 3.21578 28.5948 3.67754V7.9249C28.5948 8.38666 28.218 8.76333 27.7563 8.76333H26.0937C25.632 8.76333 25.2553 8.38676 25.2553 7.9249V3.67754C25.2553 3.21578 25.632 2.83911 26.0937 2.83911ZM16.7713 2.83911H18.4338C18.8956 2.83911 19.2722 3.21578 19.2722 3.67754V7.9249C19.2722 8.38666 18.8956 8.76333 18.4338 8.76333H16.7713C16.3095 8.76333 15.9329 8.38676 15.9329 7.9249V3.67754C15.9329 3.21578 16.3095 2.83911 16.7713 2.83911ZM28.7122 40.5987H4.82431C2.97715 40.5987 1.47058 39.0922 1.47058 37.2451V13.7398H43.057V27.6908C41.8662 27.2404 40.5769 26.9938 39.2316 26.9938C33.2457 26.9938 28.3623 31.8772 28.3623 37.863C28.3623 38.8073 28.4839 39.7242 28.7122 40.5987ZM6.83284 17.9471C6.7287 17.9471 6.62883 17.9884 6.55519 18.0621C6.48156 18.1357 6.44019 18.2356 6.44019 18.3397V21.2775C6.44019 21.3817 6.48156 21.4816 6.55519 21.5552C6.62883 21.6288 6.7287 21.6702 6.83284 21.6702H9.77078C9.87491 21.6702 9.97476 21.6288 10.0484 21.5552C10.122 21.4815 10.1634 21.3817 10.1634 21.2775V18.3397C10.1634 18.2356 10.122 18.1357 10.0484 18.0621C9.97476 17.9885 9.87491 17.9471 9.77078 17.9471H6.83284ZM34.7569 17.9471C34.6527 17.9471 34.5529 17.9884 34.4792 18.0621C34.4056 18.1357 34.3642 18.2356 34.3642 18.3397V21.2775C34.3642 21.3817 34.4056 21.4816 34.4792 21.5552C34.5529 21.6288 34.6527 21.6702 34.7569 21.6702H37.6948C37.7989 21.6702 37.8988 21.6288 37.9724 21.5552C38.0461 21.4816 38.0874 21.3817 38.0874 21.2775V18.3397C38.0874 18.2356 38.0461 18.1357 37.9724 18.0621C37.8988 17.9884 37.7989 17.9471 37.6948 17.9471H34.7569ZM13.8138 24.928C13.7097 24.928 13.6098 24.9694 13.5362 25.043C13.4626 25.1166 13.4212 25.2165 13.4212 25.3206V28.2585C13.4212 28.3627 13.4625 28.4625 13.5362 28.5362C13.6098 28.6098 13.7097 28.6512 13.8138 28.6512H16.7517C16.8558 28.6512 16.9557 28.6098 17.0293 28.5362C17.1029 28.4625 17.1443 28.3627 17.1443 28.2585V25.3206C17.1443 25.2165 17.1029 25.1166 17.0293 25.043C16.9556 24.9694 16.8558 24.928 16.7517 24.928H13.8138ZM20.7949 17.9471C20.6908 17.9471 20.5909 17.9884 20.5173 18.0621C20.4436 18.1357 20.4022 18.2356 20.4022 18.3397V21.2775C20.4022 21.3817 20.4436 21.4816 20.5173 21.5552C20.5909 21.6288 20.6908 21.6702 20.7949 21.6702H23.7327C23.8369 21.6702 23.9367 21.6288 24.0104 21.5552C24.084 21.4816 24.1254 21.3817 24.1254 21.2775V18.3397C24.1254 18.2356 24.084 18.1357 24.0104 18.0621C23.9367 17.9884 23.8369 17.9471 23.7327 17.9471H20.7949ZM13.8138 17.9471C13.7097 17.9471 13.6098 17.9884 13.5362 18.0621C13.4625 18.1357 13.4212 18.2356 13.4212 18.3397V21.2775C13.4212 21.3817 13.4625 21.4816 13.5362 21.5552C13.6098 21.6288 13.7097 21.6702 13.8138 21.6702H16.7517C16.8558 21.6702 16.9557 21.6288 17.0293 21.5552C17.1029 21.4816 17.1443 21.3817 17.1443 21.2775V18.3397C17.1443 18.2356 17.1029 18.1357 17.0293 18.0621C16.9557 17.9884 16.8558 17.9471 16.7517 17.9471H13.8138ZM6.83284 31.9089C6.7287 31.9089 6.62883 31.9503 6.55519 32.0239C6.48156 32.0976 6.44019 32.1974 6.44019 32.3016V35.2395C6.44019 35.3436 6.48156 35.4435 6.55519 35.5171C6.62883 35.5908 6.7287 35.6322 6.83284 35.6322H9.77078C9.87491 35.6321 9.97476 35.5907 10.0484 35.5171C10.122 35.4435 10.1634 35.3436 10.1634 35.2395V32.3016C10.1634 32.1974 10.122 32.0976 10.0484 32.0239C9.97476 31.9503 9.87491 31.9089 9.77078 31.9089H6.83284ZM13.8138 31.9089C13.7097 31.9089 13.6098 31.9503 13.5362 32.0239C13.4625 32.0976 13.4212 32.1974 13.4212 32.3016V35.2395C13.4212 35.3436 13.4625 35.4435 13.5362 35.5171C13.6098 35.5908 13.7097 35.6322 13.8138 35.6322H16.7517C16.8558 35.6322 16.9557 35.5908 17.0293 35.5171C17.1029 35.4435 17.1443 35.3436 17.1443 35.2395V32.3016C17.1443 32.1974 17.1029 32.0976 17.0293 32.0239C16.9557 31.9503 16.8558 31.9089 16.7517 31.9089H13.8138ZM20.7949 31.9089C20.6908 31.9089 20.5909 31.9503 20.5173 32.0239C20.4436 32.0976 20.4022 32.1974 20.4022 32.3016V35.2395C20.4022 35.3436 20.4436 35.4435 20.5173 35.5171C20.5909 35.5908 20.6908 35.6322 20.7949 35.6322H23.7327C23.8369 35.6322 23.9367 35.5908 24.0104 35.5171C24.084 35.4435 24.1254 35.3436 24.1254 35.2395V32.3016C24.1254 32.1974 24.084 32.0976 24.0104 32.0239C23.9367 31.9503 23.8369 31.9089 23.7327 31.9089H20.7949ZM6.83284 24.928C6.72872 24.928 6.62886 24.9694 6.55523 25.043C6.48159 25.1166 6.44022 25.2165 6.44019 25.3206V28.2585C6.44019 28.3627 6.48156 28.4625 6.55519 28.5362C6.62883 28.6098 6.7287 28.6512 6.83284 28.6512H9.77078C9.87491 28.6511 9.97476 28.6098 10.0484 28.5361C10.122 28.4625 10.1634 28.3627 10.1634 28.2585V25.3206C10.1634 25.2165 10.122 25.1166 10.0484 25.043C9.97475 24.9694 9.8749 24.928 9.77078 24.928H6.83284ZM27.7758 17.9471C27.6716 17.9471 27.5718 17.9885 27.4982 18.0621C27.4245 18.1357 27.3832 18.2356 27.3831 18.3397V21.2775C27.3832 21.3817 27.4245 21.4815 27.4982 21.5552C27.5718 21.6288 27.6716 21.6702 27.7758 21.6702H30.7137C30.8179 21.6702 30.9177 21.6288 30.9914 21.5552C31.065 21.4816 31.1064 21.3817 31.1064 21.2775V18.3397C31.1064 18.2356 31.065 18.1357 30.9914 18.0621C30.9177 17.9884 30.8179 17.9471 30.7137 17.9471H27.7758ZM27.7758 24.928C27.6717 24.928 27.5718 24.9694 27.4982 25.043C27.4245 25.1166 27.3832 25.2165 27.3831 25.3206V28.2585C27.3832 28.3627 27.4245 28.4625 27.4982 28.5361C27.5718 28.6098 27.6716 28.6511 27.7758 28.6512H30.7137C30.8179 28.6512 30.9177 28.6098 30.9914 28.5362C31.065 28.4625 31.1064 28.3627 31.1064 28.2585V25.3206C31.1063 25.2165 31.065 25.1166 30.9913 25.043C30.9177 24.9694 30.8178 24.928 30.7137 24.928H27.7758ZM20.7949 24.928C20.6908 24.928 20.5909 24.9694 20.5173 25.043C20.4437 25.1166 20.4023 25.2165 20.4022 25.3206V28.2585C20.4022 28.3627 20.4436 28.4625 20.5173 28.5362C20.5909 28.6098 20.6908 28.6512 20.7949 28.6512H23.7327C23.8369 28.6512 23.9367 28.6098 24.0104 28.5362C24.084 28.4625 24.1254 28.3627 24.1254 28.2585V25.3206C24.1254 25.2165 24.084 25.1166 24.0103 25.043C23.9367 24.9694 23.8369 24.928 23.7327 24.928H20.7949ZM39.4857 5.63637H39.7032C41.5504 5.63637 43.057 7.14293 43.057 8.99019V12.1713H1.47058V8.99019C1.47058 7.14293 2.97715 5.63637 4.82431 5.63637H5.04186V7.9249C5.04186 9.25088 6.12323 10.332 7.44882 10.332H9.11137C10.4371 10.332 11.5184 9.25058 11.5184 7.9249V5.63637H14.3643V7.9249C14.3643 9.25088 15.4456 10.332 16.7713 10.332H18.4338C19.7595 10.332 20.8408 9.25058 20.8408 7.9249V5.63637H23.6867V7.9249C23.6867 9.25088 24.768 10.332 26.0937 10.332H27.7563C29.0818 10.332 30.1634 9.25048 30.1634 7.9249V5.63637H33.0092V7.9249C33.0092 9.25088 34.0904 10.332 35.4161 10.332H37.0787C38.4043 10.332 39.4857 9.25058 39.4857 7.9249V5.63637ZM39.2316 47.1609C34.1096 47.1609 29.931 42.985 29.931 37.863C29.931 32.741 34.1096 28.5624 39.2316 28.5624C44.3535 28.5624 48.5294 32.741 48.5294 37.863C48.5294 42.985 44.3535 47.1609 39.2316 47.1609ZM38.0108 38.6816L35.9325 36.6033C35.3942 36.065 34.5202 36.065 33.982 36.6033C33.4437 37.1444 33.4437 38.0156 33.982 38.5539L37.0369 41.6116C37.5751 42.1498 38.4491 42.1498 38.9874 41.6116C40.8298 39.7692 42.6499 37.9074 44.484 36.0568C45.0195 35.5157 45.0167 34.6444 44.4784 34.1089C43.9402 33.5734 43.0662 33.5762 42.5306 34.1145L38.0108 38.6816Z" fill="#3498DB"/>
</svg>
