<svg width="26" height="26" viewBox="0 0 26 26" fill="none" xmlns="http://www.w3.org/2000/svg">
<path d="M8.26477 17.4189V19.6636C8.26477 19.8791 8.17917 20.0858 8.02679 20.2381C7.87442 20.3905 7.66776 20.4761 7.45227 20.4761C7.23678 20.4761 7.03012 20.3905 6.87775 20.2381C6.72537 20.0858 6.63977 19.8791 6.63977 19.6636V17.4189C6.63977 17.2035 6.72537 16.9968 6.87775 16.8444C7.03012 16.692 7.23678 16.6064 7.45227 16.6064C7.66776 16.6064 7.87442 16.692 8.02679 16.8444C8.17917 16.9968 8.26477 17.2035 8.26477 17.4189ZM13 14.3607C12.7845 14.3607 12.5779 14.4463 12.4255 14.5987C12.2731 14.751 12.1875 14.9577 12.1875 15.1732V19.6636C12.1875 19.8791 12.2731 20.0858 12.4255 20.2381C12.5779 20.3905 12.7845 20.4761 13 20.4761C13.2155 20.4761 13.4222 20.3905 13.5745 20.2381C13.7269 20.0858 13.8125 19.8791 13.8125 19.6636V15.1732C13.8125 14.9577 13.7269 14.751 13.5745 14.5987C13.4222 14.4463 13.2155 14.3607 13 14.3607ZM18.5478 12.116C18.3323 12.116 18.1256 12.2016 17.9732 12.354C17.8209 12.5064 17.7353 12.713 17.7353 12.9285V19.6636C17.7353 19.8791 17.8209 20.0858 17.9732 20.2381C18.1256 20.3905 18.3323 20.4761 18.5478 20.4761C18.7633 20.4761 18.9699 20.3905 19.1223 20.2381C19.2747 20.0858 19.3603 19.8791 19.3603 19.6636V12.9285C19.3603 12.713 19.2747 12.5064 19.1223 12.354C18.9699 12.2016 18.7633 12.116 18.5478 12.116Z" fill="#F98A17"/>
<path d="M19.3549 6.3061V9.50519C19.3549 9.72068 19.2693 9.92734 19.1169 10.0797C18.9645 10.2321 18.7578 10.3177 18.5424 10.3177C18.3269 10.3177 18.1202 10.2321 17.9678 10.0797C17.8155 9.92734 17.7299 9.72068 17.7299 9.50519V8.45002C14.976 11.2891 11.4821 13.3002 7.64402 14.2556C7.57927 14.2723 7.51265 14.2807 7.44577 14.2805C7.24872 14.2776 7.05944 14.2032 6.91317 14.0712C6.76691 13.9391 6.67362 13.7584 6.6507 13.5626C6.62777 13.3669 6.67677 13.1695 6.78855 13.0072C6.90034 12.8449 7.06731 12.7288 7.25835 12.6804C10.8774 11.7771 14.1629 9.85829 16.7278 7.15002H15.3769C15.1614 7.15002 14.9547 7.06442 14.8023 6.91205C14.65 6.75967 14.5644 6.55301 14.5644 6.33752C14.5644 6.12203 14.65 5.91537 14.8023 5.763C14.9547 5.61062 15.1614 5.52502 15.3769 5.52502H18.5478C18.5862 5.52989 18.6242 5.53749 18.6615 5.54777C18.7762 5.55307 18.8864 5.59396 18.9768 5.66477C19.0114 5.68063 19.0447 5.6991 19.0764 5.72002C19.0851 5.7276 19.0884 5.73735 19.0959 5.74494C19.1371 5.7866 19.1734 5.83275 19.2043 5.88252C19.2339 5.91918 19.2604 5.95833 19.2834 5.99952C19.2999 6.04458 19.3126 6.09097 19.3213 6.13819C19.3377 6.19299 19.3489 6.24921 19.3549 6.3061ZM24.6459 9.75002V16.25C24.6459 22.1358 22.1358 24.6459 16.25 24.6459H9.75002C3.86427 24.6459 1.35419 22.1358 1.35419 16.25V9.75002C1.35419 3.86427 3.86427 1.35419 9.75002 1.35419H16.25C22.1358 1.35419 24.6459 3.86427 24.6459 9.75002ZM23.0209 9.75002C23.0209 4.75152 21.2485 2.97919 16.25 2.97919H9.75002C4.75152 2.97919 2.97919 4.75152 2.97919 9.75002V16.25C2.97919 21.2485 4.75152 23.0209 9.75002 23.0209H16.25C21.2485 23.0209 23.0209 21.2485 23.0209 16.25V9.75002Z" fill="#0B1051"/>
</svg>
