<svg xmlns="http://www.w3.org/2000/svg" version="1.1" xmlns:xlink="http://www.w3.org/1999/xlink" width="512" height="512" x="0" y="0" viewBox="0 0 60 60" style="enable-background:new 0 0 512 512" xml:space="preserve" class=""><g><path d="M42.5 45c-4.1 0-7.5-3.4-7.5-7.5s3.4-7.5 7.5-7.5 7.5 3.4 7.5 7.5-3.4 7.5-7.5 7.5zm0-12.5c-2.8 0-5 2.2-5 5s2.2 5 5 5 5-2.2 5-5-2.2-5-5-5zM55 58.7h-2.5V55c0-1.3-.5-2.6-1.5-3.5-.9-.9-2.2-1.5-3.5-1.5h-10c-1.3 0-2.6.5-3.5 1.5-.9.9-1.5 2.2-1.5 3.5v3.8H30V55c0-2 .8-3.9 2.2-5.3s3.3-2.2 5.3-2.2h10c2 0 3.9.8 5.3 2.2S55 53 55 55zM6.3 51.2h20v2.5h-20z" fill="#000000" opacity="1" data-original="#000000" class=""></path><path d="M12.5 52.5H10v-45h37.5v20H45V10H12.5z" fill="#000000" opacity="1" data-original="#000000" class=""></path><path d="M17.5 16.2h8.8v2.5h-8.8zM31.3 16.2h8.8v2.5h-8.8zM17.5 25h8.8v2.5h-8.8zM17.5 33.7h8.8v2.5h-8.8zM41.3 8.7h-2.6V3.8H18.8v4.9h-2.6V1.2h25.1zM17.5 42.5h8.8V45h-8.8zM31.3 25h8.8v2.5h-8.8z" fill="#000000" opacity="1" data-original="#000000" class=""></path></g></svg>