<svg width="50" height="50" viewBox="0 0 50 50" fill="none" xmlns="http://www.w3.org/2000/svg">
<path d="M19.043 22.4609C24.4364 22.4609 28.8086 18.0887 28.8086 12.6953C28.8086 7.30191 24.4364 2.92969 19.043 2.92969C13.6496 2.92969 9.27734 7.30191 9.27734 12.6953C9.27734 18.0887 13.6496 22.4609 19.043 22.4609Z" fill="#3498DB"/>
<path d="M20.2026 31.25H17.8833L16.6717 40.2965L19.043 43.2605L21.4143 40.2965L20.2026 31.25ZM17.8425 28.3203H20.2435L20.7318 25.3906H17.3542L17.8425 28.3203Z" fill="#3498DB"/>
<path d="M13.6849 40.5282L15.1205 29.8089L14.3841 25.3906H11.7188C5.24668 25.3906 0 30.6373 0 37.1094V45.6055C0 46.4145 0.655859 47.0703 1.46484 47.0703H18.339L13.9929 41.6377C13.8692 41.4832 13.7782 41.3052 13.7253 41.1145C13.6723 40.9238 13.6586 40.7244 13.6849 40.5282ZM29.0587 25.7032C28.1766 25.4954 27.2734 25.3905 26.3672 25.3906H23.7019L22.9655 29.8089L24.4012 40.5282C24.4275 40.7244 24.4137 40.9238 24.3608 41.1145C24.3078 41.3052 24.2168 41.4832 24.0932 41.6378L19.747 47.0703H27.3478C26.4261 45.8453 25.8789 44.3233 25.8789 42.6758V31.7383C25.8789 29.2369 27.1397 27.0251 29.0587 25.7032ZM45.6055 27.3438H44.7754V24.9023C44.7754 23.0177 43.2421 21.4844 41.3574 21.4844H37.4512C35.5665 21.4844 34.0332 23.0177 34.0332 24.9023V27.3438H33.2031C30.7761 27.3438 28.8086 29.3112 28.8086 31.7383V32.7148H50V31.7383C50 29.3112 48.0325 27.3438 45.6055 27.3438ZM41.8457 27.3438H36.9629V24.9023C36.9629 24.6331 37.1819 24.4141 37.4512 24.4141H41.3574C41.6267 24.4141 41.8457 24.6331 41.8457 24.9023V27.3438ZM28.8086 42.6758C28.8086 45.1028 30.7761 47.0703 33.2031 47.0703H45.6055C48.0325 47.0703 50 45.1028 50 42.6758V35.6445H28.8086V42.6758Z" fill="#3498DB"/>
</svg>
