<svg width="50" height="50" viewBox="0 0 50 50" fill="none" xmlns="http://www.w3.org/2000/svg">
<path fill-rule="evenodd" clip-rule="evenodd" d="M12.5 5.72917H10.4167C8.34467 5.72917 6.35753 6.55227 4.8924 8.0174C3.42727 9.48253 2.60417 11.4697 2.60417 13.5417V38.5417C2.60417 40.6137 3.42727 42.6008 4.8924 44.0659C6.35753 45.5311 8.34467 46.3542 10.4167 46.3542H26.825C26.4659 45.6503 26.2563 44.8798 26.2093 44.091C26.1624 43.3023 26.2791 42.5123 26.5521 41.7708C27.5292 39.1156 29.4031 36.8851 31.85 35.4646C30.3869 33.9223 29.5683 31.8793 29.5618 29.7535C29.5553 27.6276 30.3612 25.5796 31.8148 24.0283C33.2684 22.4771 35.2597 21.5399 37.3815 21.4083C39.5033 21.2768 41.5951 21.961 43.2292 23.3208V13.5417C43.2292 11.4697 42.4061 9.48253 40.9409 8.0174C39.4758 6.55227 37.4887 5.72917 35.4167 5.72917H33.3333V10.4167C33.3333 10.8311 33.1687 11.2285 32.8757 11.5215C32.5827 11.8146 32.1852 11.9792 31.7708 11.9792C31.3564 11.9792 30.959 11.8146 30.666 11.5215C30.373 11.2285 30.2083 10.8311 30.2083 10.4167V5.72917H15.625V10.4167C15.625 10.8311 15.4604 11.2285 15.1674 11.5215C14.8743 11.8146 14.4769 11.9792 14.0625 11.9792C13.6481 11.9792 13.2507 11.8146 12.9577 11.5215C12.6646 11.2285 12.5 10.8311 12.5 10.4167V5.72917ZM12.5 30.7292H22.9167C23.3311 30.7292 23.7285 30.5645 24.0215 30.2715C24.3146 29.9785 24.4792 29.5811 24.4792 29.1667C24.4792 28.7523 24.3146 28.3548 24.0215 28.0618C23.7285 27.7688 23.3311 27.6042 22.9167 27.6042H12.5C12.0856 27.6042 11.6882 27.7688 11.3952 28.0618C11.1021 28.3548 10.9375 28.7523 10.9375 29.1667C10.9375 29.5811 11.1021 29.9785 11.3952 30.2715C11.6882 30.5645 12.0856 30.7292 12.5 30.7292ZM12.5 22.3958H18.9583C19.3727 22.3958 19.7702 22.2312 20.0632 21.9382C20.3562 21.6452 20.5208 21.2477 20.5208 20.8333C20.5208 20.4189 20.3562 20.0215 20.0632 19.7285C19.7702 19.4355 19.3727 19.2708 18.9583 19.2708H12.5C12.0856 19.2708 11.6882 19.4355 11.3952 19.7285C11.1021 20.0215 10.9375 20.4189 10.9375 20.8333C10.9375 21.2477 11.1021 21.6452 11.3952 21.9382C11.6882 22.2312 12.0856 22.3958 12.5 22.3958Z" fill="#3498DB"/>
<path d="M37.8542 35.9375C41.306 35.9375 44.1042 33.1393 44.1042 29.6875C44.1042 26.2357 41.306 23.4375 37.8542 23.4375C34.4024 23.4375 31.6042 26.2357 31.6042 29.6875C31.6042 33.1393 34.4024 35.9375 37.8542 35.9375Z" fill="#3498DB"/>
<path fill-rule="evenodd" clip-rule="evenodd" d="M31.9313 47.3958L43.7917 47.3688C44.3735 47.3665 44.9463 47.224 45.4613 46.9533C45.9764 46.6825 46.4186 46.2916 46.7504 45.8136C47.0822 45.3356 47.2939 44.7847 47.3674 44.2075C47.441 43.6303 47.3742 43.0439 47.1729 42.4979C46.4848 40.5776 45.2202 38.9167 43.5522 37.7424C41.8842 36.5681 39.8941 35.9377 37.8542 35.9375C35.813 35.9417 33.8223 36.5723 32.151 37.744C30.4797 38.9157 29.2082 40.5722 28.5083 42.4896C28.3052 43.0408 28.2384 43.633 28.3134 44.2157C28.3884 44.7984 28.6032 45.3543 28.9393 45.8361C29.2754 46.3179 29.723 46.7113 30.244 46.9829C30.7649 47.2545 31.3438 47.3961 31.9313 47.3958ZM12.5 5.72917H15.625V4.16667C15.625 3.75227 15.4604 3.35484 15.1674 3.06182C14.8743 2.76879 14.4769 2.60417 14.0625 2.60417C13.6481 2.60417 13.2507 2.76879 12.9576 3.06182C12.6646 3.35484 12.5 3.75227 12.5 4.16667V5.72917ZM30.2083 5.72917H33.3333V4.16667C33.3333 3.75227 33.1687 3.35484 32.8757 3.06182C32.5827 2.76879 32.1852 2.60417 31.7708 2.60417C31.3564 2.60417 30.959 2.76879 30.666 3.06182C30.373 3.35484 30.2083 3.75227 30.2083 4.16667V5.72917Z" fill="#3498DB"/>
</svg>
