<svg width="50" height="50" viewBox="0 0 50 50" fill="none" xmlns="http://www.w3.org/2000/svg">
<g clip-path="url(#clip0_1_17)">
<path fill-rule="evenodd" clip-rule="evenodd" d="M31.6344 38.9572C31.3415 38.9572 31.0193 38.8401 30.8143 38.6057L26.4499 34.2414C25.9813 33.802 25.9813 33.0404 26.4499 32.601L40.1289 18.8928C40.5975 18.4241 41.3298 18.4241 41.7985 18.8928C42.2086 19.3029 42.9408 19.3029 43.3509 18.8928C43.8196 18.4241 44.5518 18.4241 45.0205 18.8928L46.1629 20.0644C46.6315 20.5331 46.6315 21.2654 46.1629 21.734C45.7528 22.1441 45.7528 22.8178 46.1629 23.2572C46.6315 23.6965 46.6315 24.4581 46.1629 24.8975L32.4546 38.6057C32.2496 38.8401 31.9566 38.9572 31.6344 38.9572ZM22.3784 14.4991H9.87112C9.22671 14.4991 8.69947 13.9719 8.69947 13.3275V9.43174C8.69947 6.61979 10.9842 4.33508 13.7961 4.33508H18.4534C21.2654 4.33508 23.5501 6.61979 23.5501 9.43174V13.3275C23.5501 13.9719 23.0228 14.4991 22.3784 14.4991ZM25.0439 41.1834C24.751 41.1834 24.4581 41.0662 24.2238 40.8319C23.9016 40.5097 23.7844 40.0703 23.9309 39.6309L25.5126 34.9736L25.6005 35.0615L29.9941 39.4552L30.082 39.543L25.4247 41.1248C25.3076 41.1541 25.1611 41.1834 25.0439 41.1834ZM41.5641 17.4575L42.9701 16.0515C43.6145 15.4071 44.464 15.0849 45.3427 15.0849C46.2507 15.0849 47.1002 15.4071 47.7153 16.0515L49.0041 17.3404C49.6485 17.9848 50 18.8049 50 19.7129C50 20.621 49.6485 21.4411 49.0041 22.0855L47.5981 23.4622C47.5103 23.1107 47.3345 22.7885 47.0709 22.4956C47.9203 21.5583 47.891 20.123 47.0123 19.2443L45.8407 18.0726C44.9326 17.1646 43.4974 17.1646 42.56 18.0141C42.2671 17.7504 41.9449 17.5454 41.5641 17.4575ZM29.2619 45.6356H2.9877C1.34739 45.6356 0 44.3175 0 42.6772V9.49033C0 7.85002 1.34739 6.53192 2.9877 6.53192H8.26011C7.79145 7.38136 7.52783 8.37726 7.52783 9.43174V10.6913H4.74517C4.42296 10.6913 4.15934 10.9549 4.15934 11.2771V40.9197C4.15934 41.2419 4.42296 41.5056 4.74517 41.5056H23.2279C23.2865 41.5641 23.3451 41.6227 23.4036 41.652C23.843 42.1207 24.4288 42.355 25.0439 42.355C25.3076 42.355 25.5419 42.3257 25.8055 42.2378L32.2496 40.0703V42.6772C32.2496 44.3175 30.9022 45.6356 29.2619 45.6356ZM23.9895 6.53192H29.2619C30.9022 6.53192 32.2496 7.85002 32.2496 9.49033V25.1318L28.0902 29.2911V11.2771C28.0902 10.9549 27.8266 10.6913 27.5044 10.6913H24.7217V9.43174C24.7217 8.37726 24.4581 7.38136 23.9895 6.53192ZM24.7217 11.8629H26.9186V30.4628L25.6005 31.7516L25.5712 31.8102L25.5419 31.8395H25.5126L25.4833 31.8981C25.454 31.9273 25.4247 31.9566 25.4247 31.9859L25.3954 32.0152L25.3661 32.0445L25.3368 32.0738L25.3076 32.1324L25.2783 32.191L25.249 32.2203L25.2197 32.2788L25.1904 32.3374L25.1611 32.3667V32.4253H25.1318V32.4839H25.1025V32.5425L25.0732 32.5718V32.6303H25.0439V32.6889L24.3702 34.71C24.2531 34.5928 24.0773 34.505 23.9016 34.505H18.0141C17.6919 34.505 17.4282 34.7686 17.4282 35.0908C17.4282 35.413 17.6919 35.6766 18.0141 35.6766H24.048L22.8178 39.2501C22.7006 39.6016 22.6714 39.9824 22.7299 40.3339H5.33099V11.8629H7.52783V13.3275C7.52783 14.6163 8.58231 15.6708 9.87112 15.6708H22.3784C23.6673 15.6708 24.7217 14.6163 24.7217 13.3275V11.8629ZM23.9016 19.7129C24.2238 19.7129 24.4874 19.4493 24.4874 19.1271C24.4874 18.8049 24.2238 18.5413 23.9016 18.5413H18.0141C17.6919 18.5413 17.4282 18.8049 17.4282 19.1271C17.4282 19.4493 17.6919 19.7129 18.0141 19.7129H23.9016ZM23.9016 27.7094C24.2238 27.7094 24.4874 27.4458 24.4874 27.1236C24.4874 26.8014 24.2238 26.5378 23.9016 26.5378H18.0141C17.6919 26.5378 17.4282 26.8014 17.4282 27.1236C17.4282 27.4458 17.6919 27.7094 18.0141 27.7094H23.9016ZM13.3568 18.1605C13.6204 17.9848 13.6497 17.604 13.4739 17.3404C13.2689 17.0767 12.8881 17.0474 12.6538 17.2232L9.37317 19.7129L8.75806 18.7756C8.58231 18.512 8.23081 18.4241 7.9379 18.5999C7.67428 18.7756 7.6157 19.1564 7.79145 19.42L8.75806 20.8846C8.84593 21.031 8.99238 21.1189 9.13884 21.1482H9.256C9.37317 21.1482 9.49033 21.1189 9.6075 21.031L13.3568 18.1605ZM9.256 37.1119C9.37317 37.1119 9.49033 37.0826 9.6075 36.9947L13.3568 34.1242C13.6204 33.9484 13.6497 33.5677 13.4739 33.304C13.2689 33.0697 12.8881 33.0111 12.6538 33.2162L9.37317 35.6766L8.75806 34.7393C8.58231 34.4757 8.23081 34.3878 7.9379 34.5636C7.67428 34.7393 7.6157 35.1201 7.79145 35.3837L8.75806 36.8483C8.84593 36.9947 8.99238 37.0826 9.13884 37.1119H9.256ZM8.87522 28.0902C8.64089 28.266 8.58231 28.6467 8.78735 28.9104C8.87522 29.0568 9.05097 29.1447 9.256 29.1447C9.37317 29.1447 9.49033 29.0861 9.6075 28.9982L11.1306 27.8559L12.6538 28.9982C12.7417 29.0861 12.8588 29.1447 13.0053 29.1447C13.181 29.1447 13.3568 29.0568 13.4739 28.9104C13.6497 28.6467 13.6204 28.266 13.3568 28.0902L12.0972 27.1236L13.3568 26.157C13.6204 25.952 13.6497 25.6005 13.4739 25.3368C13.2689 25.0732 12.8881 25.0146 12.6538 25.2197L11.1306 26.3913L9.6075 25.2197C9.34388 25.0146 8.96309 25.0732 8.78735 25.3368C8.58231 25.6005 8.64089 25.952 8.87522 26.157L10.164 27.1236L8.87522 28.0902Z" fill="#3498DB"/>
</g>
<defs>
<clipPath id="clip0_1_17">
<rect width="50" height="50" fill="white"/>
</clipPath>
</defs>
</svg>
