<svg xmlns="http://www.w3.org/2000/svg" version="1.1" xmlns:xlink="http://www.w3.org/1999/xlink" width="512" height="512" x="0" y="0" viewBox="0 0 512 512" style="enable-background:new 0 0 512 512" xml:space="preserve" class=""><g><path d="M427.841 249.02V76.729c0-22.369-18.199-40.567-40.568-40.567h-9.345V25.14c0-8.9-7.241-16.142-16.142-16.142h-16.145c-8.9 0-16.142 7.241-16.142 16.142v11.022h-42.101V25.14c0-8.9-7.241-16.142-16.142-16.142h-16.145c-8.9 0-16.142 7.241-16.142 16.142v11.022H196.87V25.14c0-8.9-7.241-16.142-16.142-16.142h-16.145c-8.9 0-16.142 7.241-16.142 16.142v11.022H106.34V25.14c0-8.9-7.241-16.142-16.142-16.142H74.055c-8.9 0-16.142 7.241-16.142 16.142v11.022h-9.345C26.199 36.162 8 54.36 8 76.729V351.11c0 22.369 18.199 40.568 40.568 40.568H238.92c10.579 63.091 65.567 111.323 131.617 111.323C444.129 503.002 504 443.13 504 369.538c0-53.092-31.165-99.038-76.159-120.518zM345.5 25.14c0-.066.075-.142.142-.142h16.145c.066 0 .142.075.142.142v49.388c0 .066-.076.142-.142.142h-16.145c-.066 0-.142-.075-.142-.142zm-90.529 0c0-.066.075-.142.142-.142h16.145c.066 0 .142.075.142.142v49.388c0 .066-.075.142-.142.142h-16.145c-.066 0-.142-.075-.142-.142zm-90.529 0c0-.066.075-.142.142-.142h16.145c.066 0 .142.075.142.142v49.388c0 .066-.076.142-.142.142h-16.145c-.066 0-.142-.075-.142-.142zm-90.529 0c0-.066.075-.142.142-.142H90.2c.066 0 .142.075.142.142v49.388c0 .066-.075.142-.142.142H74.055c-.066 0-.142-.075-.142-.142zM48.568 52.162h9.345v22.365c0 8.9 7.241 16.142 16.142 16.142H90.2c8.9 0 16.142-7.241 16.142-16.142V52.162h42.101v22.365c0 8.9 7.241 16.142 16.142 16.142h16.145c8.901 0 16.142-7.241 16.142-16.142V52.162h42.101v22.365c0 8.9 7.241 16.142 16.142 16.142h16.145c8.9 0 16.142-7.241 16.142-16.142V52.162H329.5v22.365c0 8.9 7.241 16.142 16.142 16.142h16.145c8.901 0 16.142-7.241 16.142-16.142V52.162h9.345c13.547 0 24.568 11.021 24.568 24.567v30.507H24V76.729c0-13.546 11.021-24.567 24.568-24.567zm0 323.517C35.021 375.679 24 364.657 24 351.11V123.236h387.841v119.389a132.667 132.667 0 0 0-33.259-6.301v-78.343a8 8 0 0 0-8-8H65.26a8 8 0 0 0-8 8v183.194a8 8 0 0 0 8 8h173.365a133.935 133.935 0 0 0-1.551 20.362c0 2.059.054 4.104.147 6.141H48.568zm314.015-164.633h-45.064v-45.064h45.064zm-61.065 0h-45.065v-45.064h45.065zm-61.065 0h-45.064v-45.064h45.064zm-45.064 16h45.064v45.064h-45.064zm-16 45.064h-45.064v-45.064h45.064zm0-61.064h-45.064v-45.064h45.064zm-61.065 0H73.26v-45.064h45.064zm-45.064 16h45.064v45.064H73.26zm0 61.064h45.064v45.065H73.26zm61.064 0h45.064v45.065h-45.064zm61.065 0h45.064v45.065h-45.064zm61.064 0h8.417a133.97 133.97 0 0 0-8.417 12.227zm22.973-16h-22.972v-45.064h45.065v28.299a134.264 134.264 0 0 0-22.093 16.765zm38.092-45.064h45.064v9.273a132.494 132.494 0 0 0-45.064 10.751zm53.019 259.956c-64.77 0-117.463-52.694-117.463-117.464s52.694-117.463 117.463-117.463S488 304.768 488 369.538s-52.694 117.464-117.463 117.464zm96.792-163.863c0-8.083-6.576-14.659-14.659-14.659h-39.465v-5.908c0-12.08-9.827-21.908-21.907-21.908h-41.52c-12.08 0-21.908 9.828-21.908 21.908v5.908h-39.466c-8.083 0-14.659 6.576-14.659 14.659v31.682c0 6.894 2.665 13.052 7.915 18.4v54.937c0 11.577 9.419 20.996 20.996 20.996h135.761c11.577 0 20.996-9.419 20.996-20.996V373.22c5.25-5.349 7.916-11.507 7.916-18.4zm-135.159 1.34h76.734v13.653c0 .173-.176.35-.349.35h-76.036c-.173 0-.349-.177-.349-.35zm11.7-21.908a5.914 5.914 0 0 1 5.908-5.908h41.52a5.914 5.914 0 0 1 5.907 5.908v5.908H343.87zm-54.125 21.908h26.425v13.653c0 9.016 7.334 16.35 16.349 16.35h76.036c9.015 0 16.349-7.334 16.349-16.35v-13.653h26.425v30.341c0 2.722-.937 6.438-8.239 11.058-8.388 5.307-27.105 9.272-50.727 10.832-3.991-8.023-12.273-13.552-21.826-13.552-9.558 0-17.843 5.534-21.833 13.563-23.59-1.549-42.305-5.518-50.722-10.843-7.301-4.619-8.238-8.336-8.238-11.058v-30.341zm89.157 63.043c0 4.613-3.752 8.366-8.365 8.366s-8.366-3.753-8.366-8.366c0-4.612 3.753-8.365 8.366-8.365s8.365 3.753 8.365 8.365zm59.515 45.631H302.656c-2.708 0-4.996-2.288-4.996-4.996v-44.663c14.3 5.702 34.34 8.112 49.052 9.128 2.351 10.995 12.139 19.266 23.825 19.266 11.69 0 21.48-8.277 23.827-19.278 14.721-1.022 34.767-3.435 49.049-9.12v44.667c0 2.708-2.288 4.996-4.996 4.996zM80.082 192.91l4.396-4.396-4.396-4.396a8 8 0 1 1 11.313-11.314l4.397 4.397 4.397-4.397a8 8 0 1 1 11.313 11.314l-4.396 4.396 4.396 4.396a8 8 0 0 1-5.657 13.657 7.974 7.974 0 0 1-5.657-2.343l-4.397-4.397-4.397 4.397c-1.562 1.562-3.609 2.343-5.657 2.343s-4.095-.781-5.657-2.343a8.002 8.002 0 0 1 .002-11.314zm61.064-8.793a8 8 0 0 1 11.313-11.314l4.397 4.397 4.397-4.397a8 8 0 0 1 11.313 11.314l-4.396 4.396 4.396 4.396a8 8 0 0 1-11.314 11.314l-4.397-4.397-4.397 4.397c-1.562 1.562-3.609 2.343-5.657 2.343s-4.095-.781-5.657-2.343a8 8 0 0 1 0-11.314l4.396-4.396z" fill="#000000" opacity="1" data-original="#000000" class=""></path></g></svg>