<svg width="50" height="50" viewBox="0 0 50 50" fill="none" xmlns="http://www.w3.org/2000/svg">
<path d="M25 28.5254C28.2226 28.5254 31.2012 27.6172 33.584 26.0742C35.4297 24.8926 37.832 25.0879 39.4531 26.5625C43.9551 30.6445 46.5137 36.4355 46.5039 42.5195V45.127C46.5039 47.8223 44.3164 50 41.6211 50H8.3789C5.68358 50 3.49608 47.8223 3.49608 45.127V42.5195C3.47655 36.4453 6.03515 30.6445 10.5371 26.5723C12.1582 25.0977 14.5703 24.9023 16.4062 26.084C18.7988 27.6172 21.7676 28.5254 25 28.5254Z" fill="#3498DB"/>
<path d="M25 24.1797C31.677 24.1797 37.0898 18.7669 37.0898 12.0898C37.0898 5.41281 31.677 0 25 0C18.323 0 12.9102 5.41281 12.9102 12.0898C12.9102 18.7669 18.323 24.1797 25 24.1797Z" fill="#3498DB"/>
</svg>
