<svg width="50" height="50" viewBox="0 0 50 50" fill="none" xmlns="http://www.w3.org/2000/svg">
<path d="M18.6428 26.2028C18.6428 26.0215 18.7148 25.8476 18.843 25.7193C18.9712 25.5911 19.1451 25.5191 19.3265 25.519H24.709C25.342 25.1291 26.071 24.9231 26.8144 24.9238H35.6949V8.82402H30.2886C30.1988 8.82402 30.1099 8.80633 30.0269 8.77196C29.944 8.7376 29.8686 8.68723 29.8051 8.62373C29.7416 8.56024 29.6912 8.48486 29.6569 8.4019C29.6225 8.31893 29.6049 8.23002 29.6049 8.14023V2.73398H4.8793V45.5193H22.7812V39.2189H19.3266C19.1452 39.2189 18.9713 39.1469 18.843 39.0187C18.7148 38.8904 18.6428 38.7165 18.6428 38.5351C18.6428 38.3538 18.7148 38.1799 18.843 38.0516C18.9713 37.9234 19.1452 37.8514 19.3266 37.8514H22.7812V35.0666H19.3266C19.1452 35.0666 18.9713 34.9946 18.843 34.8663C18.7148 34.7381 18.6428 34.5642 18.6428 34.3828C18.6428 34.2015 18.7148 34.0275 18.843 33.8993C18.9713 33.7711 19.1452 33.699 19.3266 33.699H22.7812V28.9599C22.7804 28.2294 22.9791 27.5125 23.3557 26.8866H19.3266C19.2368 26.8866 19.1479 26.8689 19.0649 26.8346C18.9819 26.8002 18.9066 26.7498 18.8431 26.6863C18.7796 26.6228 18.7292 26.5475 18.6949 26.4645C18.6605 26.3815 18.6429 26.2926 18.6429 26.2028H18.6428ZM19.3265 9.03427H27.548C27.7294 9.03427 27.9033 9.10631 28.0316 9.23455C28.1598 9.36278 28.2318 9.53671 28.2318 9.71806C28.2318 9.89941 28.1598 10.0733 28.0316 10.2016C27.9033 10.3298 27.7294 10.4018 27.548 10.4018H19.3265C19.1451 10.4018 18.9712 10.3298 18.843 10.2016C18.7147 10.0733 18.6427 9.89941 18.6427 9.71806C18.6427 9.53671 18.7147 9.36278 18.843 9.23455C18.9712 9.10631 19.1451 9.03427 19.3265 9.03427ZM19.3265 13.1867H31.4983C31.6797 13.1867 31.8536 13.2588 31.9819 13.387C32.1101 13.5152 32.1821 13.6891 32.1821 13.8705C32.1821 14.0519 32.1101 14.2258 31.9819 14.354C31.8536 14.4822 31.6797 14.5543 31.4983 14.5543H19.3265C19.1451 14.5543 18.9712 14.4822 18.843 14.354C18.7147 14.2258 18.6427 14.0519 18.6427 13.8705C18.6427 13.6891 18.7147 13.5152 18.843 13.387C18.9712 13.2588 19.1451 13.1867 19.3265 13.1867ZM19.3265 21.3668H27.548C27.7294 21.3668 27.9033 21.4388 28.0316 21.5671C28.1598 21.6953 28.2318 21.8692 28.2318 22.0506C28.2318 22.2319 28.1598 22.4059 28.0316 22.5341C27.9033 22.6623 27.7294 22.7344 27.548 22.7344H19.3265C19.1451 22.7344 18.9712 22.6623 18.843 22.5341C18.7147 22.4059 18.6427 22.2319 18.6427 22.0506C18.6427 21.8692 18.7147 21.6953 18.843 21.5671C18.9712 21.4388 19.1451 21.3668 19.3265 21.3668ZM15.7019 34.7884L11.7156 39.0626C11.6521 39.1307 11.5752 39.1852 11.4899 39.2226C11.4045 39.26 11.3124 39.2795 11.2192 39.2801H11.2155C11.123 39.2801 11.0313 39.2613 10.9463 39.2248C10.8612 39.1883 10.7844 39.135 10.7205 39.068L8.92949 37.1883C8.80639 37.0566 8.74025 36.8817 8.74545 36.7015C8.75064 36.5214 8.82676 36.3505 8.95725 36.2262C9.08773 36.1019 9.26203 36.0341 9.44224 36.0376C9.62244 36.0411 9.79397 36.1156 9.91953 36.2449L11.2102 37.5995L14.7017 33.8558C14.8257 33.7248 14.9966 33.6482 15.1769 33.6426C15.3572 33.637 15.5324 33.703 15.6644 33.826C15.7963 33.9491 15.8743 34.1193 15.8813 34.2995C15.8883 34.4798 15.8238 34.6556 15.7018 34.7885L15.7019 34.7884ZM15.7019 22.456L11.7156 26.7302C11.6521 26.7983 11.5752 26.8528 11.4899 26.8902C11.4045 26.9275 11.3124 26.9471 11.2192 26.9476H11.2155C11.123 26.9476 11.0313 26.9288 10.9463 26.8924C10.8612 26.8559 10.7844 26.8026 10.7205 26.7355L8.92949 24.8559C8.80639 24.7243 8.74025 24.5494 8.74545 24.3692C8.75064 24.189 8.82676 24.0182 8.95725 23.8939C9.08773 23.7696 9.26203 23.7018 9.44224 23.7053C9.62244 23.7088 9.79397 23.7833 9.91953 23.9126L11.2102 25.2671L14.7017 21.5234C14.8257 21.3925 14.9966 21.3159 15.1769 21.3103C15.3572 21.3047 15.5324 21.3706 15.6644 21.4937C15.7963 21.6167 15.8743 21.7869 15.8813 21.9672C15.8883 22.1475 15.8238 22.3232 15.7018 22.4561L15.7019 22.456ZM15.7019 10.1237L11.7156 14.3978C11.6521 14.466 11.5752 14.5204 11.4899 14.5578C11.4045 14.5952 11.3124 14.6148 11.2192 14.6153H11.2155C11.123 14.6153 11.0313 14.5965 10.9463 14.56C10.8612 14.5236 10.7844 14.4702 10.7205 14.4032L8.92949 12.5236C8.80639 12.392 8.74025 12.217 8.74545 12.0369C8.75064 11.8567 8.82676 11.6859 8.95725 11.5616C9.08773 11.4372 9.26203 11.3694 9.44224 11.3729C9.62244 11.3764 9.79397 11.451 9.91953 11.5803L11.2102 12.9348L14.7017 9.19111C14.9592 8.91484 15.3918 8.8999 15.6681 9.15742C15.9443 9.41493 15.9593 9.84755 15.7018 10.1238L15.7019 10.1237ZM34.7279 7.45654H30.9724V3.70087L34.7279 7.45644V7.45654ZM41.2259 38.7429V40.5117H31.5344V38.7429C31.5344 37.424 32.6061 36.3512 33.9233 36.3512H38.8342C40.1529 36.3512 41.2259 37.424 41.2259 38.7429ZM24.1487 28.96C24.1487 27.6746 25.0613 26.5987 26.272 26.3472V43.7754H25.209C24.829 43.7754 24.4692 43.8633 24.1487 44.0196V28.96ZM33.6658 32.268C33.6658 30.7722 34.8828 29.5553 36.3787 29.5553C37.8746 29.5553 39.0943 30.7722 39.0943 32.268C39.0943 33.7638 37.8761 34.9836 36.3787 34.9836C34.8813 34.9836 33.6658 33.7653 33.6658 32.268ZM25.209 45.143H45.1207V47.2661H25.209C24.6244 47.2661 24.1487 46.7892 24.1487 46.2031C24.1487 45.617 24.6244 45.143 25.209 45.143ZM40.9131 26.2915H27.6395V43.7754H45.1208V26.2915H40.9131ZM42.5934 41.1955C42.5934 41.3768 42.5213 41.5507 42.3931 41.679C42.2649 41.8072 42.091 41.8793 41.9097 41.8793H30.8507C30.7609 41.8793 30.672 41.8616 30.589 41.8272C30.5061 41.7929 30.4307 41.7425 30.3672 41.679C30.3037 41.6155 30.2534 41.5401 30.219 41.4572C30.1847 41.3742 30.167 41.2853 30.167 41.1955V38.7429C30.167 36.8575 31.561 35.2924 33.3717 35.0245C32.7057 34.2975 32.2985 33.3296 32.2985 32.2681C32.2985 30.0182 34.129 28.1878 36.3789 28.1878C38.6288 28.1878 40.462 30.0182 40.462 32.2681C40.462 33.3297 40.0545 34.2977 39.3879 35.0247C41.1991 35.2933 42.5935 36.8581 42.5935 38.7429V41.1955H42.5934Z" fill="#3498DB"/>
</svg>
