<svg xmlns="http://www.w3.org/2000/svg" version="1.1" xmlns:xlink="http://www.w3.org/1999/xlink" width="512" height="512" x="0" y="0" viewBox="0 0 600 600.676" style="enable-background:new 0 0 512 512" xml:space="preserve" class=""><g><path d="M579.879 474.89 456.547 351.564l-5.168 5.167c-8.563 8.563-22.457 8.563-31.016 0-8.562-8.558-8.562-22.453 0-31.015l5.168-5.168-31.015-31.016-103.387 103.387 31.016 31.016 5.171-5.172c8.559-8.559 22.454-8.559 31.016 0 8.559 8.562 8.559 22.457 0 31.02l-5.172 5.167 123.332 123.328a72.949 72.949 0 0 0 12.313 9.832L589.71 487.207a74.245 74.245 0 0 0-9.832-12.316Zm0 0" style="stroke:none;fill-rule:nonzero;fill-opacity:1;" fill="#88b337" data-original="#88b337"></path><path d="M589.71 487.207 488.806 588.109c33.93 21.797 79.113 11.965 100.906-21.968 15.445-24.047 15.445-54.899 0-78.934Zm0 0" style="stroke:none;fill-rule:nonzero;fill-opacity:1;" fill="#dadddf" data-original="#dadddf" class=""></path><path d="m125.71 82.758-10.335-41.356L43.004.051 1.648 41.402l41.356 72.371 41.355 10.34 237.786 237.79 41.355-41.356Zm0 0" style="stroke:none;fill-rule:nonzero;fill-opacity:1;" fill="#cfd2d4" data-original="#cfd2d4"></path><path d="m597.793 86.254-68.875 68.875-62.031-20.676-20.676-62.035 68.875-68.875C454.48-11.922 392.82 24.676 377.356 85.281a113.32 113.32 0 0 0 0 55.992l-234.481 234.48C81.648 360.216 19.422 397.239 3.883 458.466c-15.543 61.223 21.48 123.453 82.707 138.992 61.226 15.54 123.453-21.484 138.992-82.707a114.491 114.491 0 0 0 0-56.285l234.48-234.48c60.649 15.425 122.305-21.235 137.731-81.883a113.479 113.479 0 0 0 0-55.848ZM146.391 537.66H84.359l-31.02-51.695 31.02-51.692h62.032l31.015 51.692Zm0 0" style="stroke:none;fill-rule:nonzero;fill-opacity:1;" fill="#dadddf" data-original="#dadddf" class=""></path><path d="m180.41 406.277 227.45-227.449 14.62 14.621L195.031 420.9Zm0 0" style="stroke:none;fill-rule:nonzero;fill-opacity:1;" fill="#b6b8ba" data-original="#b6b8ba" class=""></path><path d="m407.867 420.906 14.621-14.62 103.383 103.386-14.621 14.621Zm0 0" style="stroke:none;fill-rule:nonzero;fill-opacity:1;" fill="#6b962a" data-original="#6b962a"></path><path d="M601.29 526.586a72.947 72.947 0 0 0-11.58-39.379l-29.776 29.773v75.38c25.27-12.169 41.336-37.735 41.355-65.774Zm0 0" style="stroke:none;fill-rule:nonzero;fill-opacity:1;" fill="#cfd2d4" data-original="#cfd2d4"></path></g></svg>