<svg xmlns="http://www.w3.org/2000/svg" version="1.1" xmlns:xlink="http://www.w3.org/1999/xlink" width="512" height="512" x="0" y="0" viewBox="0 0 44 56" style="enable-background:new 0 0 512 512" xml:space="preserve" class=""><g><rect width="8" height="8" x="6" y="25" rx="1" fill="#000000" opacity="1" data-original="#000000" class=""></rect><rect width="8" height="8" x="6" y="39" rx="1" fill="#000000" opacity="1" data-original="#000000" class=""></rect><path d="M2 56h40a2 2 0 0 0 2-2V7h-3a4 4 0 0 1-4-4V0H2a2 2 0 0 0-2 2v52a2 2 0 0 0 2 2zm20-45h17a1 1 0 0 1 0 2H22a1 1 0 0 1 0-2zm0 5h10a1 1 0 0 1 0 2H22a1 1 0 0 1 0-2zm0 9h17a1 1 0 0 1 0 2H22a1 1 0 0 1 0-2zm0 5h10a1 1 0 0 1 0 2H22a1 1 0 0 1 0-2zm0 9h17a1 1 0 0 1 0 2H22a1 1 0 0 1 0-2zm0 5h10a1 1 0 0 1 0 2H22a1 1 0 0 1 0-2zM4 12a3 3 0 0 1 3-3h6c.94.002 1.823.447 2.385 1.2l1.908-1.908a1 1 0 0 1 1.414 1.414L16 12.414V18a3 3 0 0 1-3 3H7a3 3 0 0 1-3-3zm0 14a3 3 0 0 1 3-3h6a3 3 0 0 1 3 3v6a3 3 0 0 1-3 3H7a3 3 0 0 1-3-3zm0 14a3 3 0 0 1 3-3h6a3 3 0 0 1 3 3v6a3 3 0 0 1-3 3H7a3 3 0 0 1-3-3z" fill="#000000" opacity="1" data-original="#000000" class=""></path><path d="M7 19h6a1 1 0 0 0 1-1v-3.586l-2.293 2.293a1 1 0 0 1-1.414 0l-2-2a1 1 0 0 1 1.414-1.414L11 14.586l2.93-2.93A.994.994 0 0 0 13 11H7a1 1 0 0 0-1 1v6a1 1 0 0 0 1 1zM41 5h1.586L39 1.414V3a2 2 0 0 0 2 2z" fill="#000000" opacity="1" data-original="#000000" class=""></path></g></svg>