<svg width="50" height="50" viewBox="0 0 50 50" fill="none" xmlns="http://www.w3.org/2000/svg">
<path fill-rule="evenodd" clip-rule="evenodd" d="M5.05527 6.00361H11.8083L12.2102 7.86328H7.54629C6.37178 7.86328 5.41494 8.81992 5.41494 9.99463V45.1301C5.41494 46.3048 6.37139 47.2614 7.54629 47.2614H32.3087C33.4836 47.2614 34.44 46.3048 34.44 45.1301V44.7775H36.5176V47.4032C36.5176 48.348 35.7445 49.1211 34.7997 49.1211H5.05527C4.11045 49.1211 3.3374 48.348 3.3374 47.4032V7.72148C3.3374 6.77666 4.11045 6.00361 5.05527 6.00361ZM23.6231 38.3858V43.2149H42.3014V38.3859L23.6231 38.3858ZM43.8639 38.386H45.5653C46.1696 38.386 46.6626 38.8789 46.6626 39.4832V42.1179C46.6626 42.7222 46.1696 43.215 45.5653 43.215H43.8639V38.386ZM22.0606 42.8468V38.754L18.9381 40.2215C18.4473 40.4521 18.4474 41.1485 18.9381 41.3792L22.0606 42.8467V42.8468ZM13.5991 4.83486C13.5455 4.83463 13.4925 4.84646 13.444 4.86949C13.3956 4.89252 13.3529 4.92615 13.3193 4.96789C13.2856 5.00963 13.2617 5.05841 13.2494 5.11063C13.2372 5.16284 13.2368 5.21715 13.2483 5.26953L13.8682 8.13799C13.9765 8.63906 14.4079 8.9873 14.9206 8.9873H24.9347C25.4474 8.9873 25.8788 8.63916 25.9871 8.13799L26.6069 5.26953C26.6185 5.21715 26.6181 5.16284 26.6058 5.11063C26.5936 5.05841 26.5697 5.00963 26.536 4.96789C26.5023 4.92615 26.4597 4.89252 26.4112 4.86949C26.3628 4.84646 26.3098 4.83463 26.2562 4.83486H21.6722L23.496 2.25615C23.906 1.67646 23.4932 0.878906 22.7831 0.878906H17.0723C16.3623 0.878906 15.9495 1.67646 16.3595 2.25615L18.1833 4.83486H13.5991ZM34.44 36.8234H36.5176V7.72148C36.5176 6.77666 35.7445 6.00361 34.7997 6.00361H28.0467L27.6448 7.86328H32.3086C33.4831 7.86328 34.4399 8.81992 34.4399 9.99463L34.44 36.8234ZM12.7176 39.4952L11.7628 40.459L11.4801 40.1835C11.3315 40.0417 11.133 39.9644 10.9277 39.9682C10.7224 39.972 10.5269 40.0567 10.3837 40.2039C10.2406 40.3511 10.1613 40.5489 10.1631 40.7542C10.165 40.9595 10.2478 41.1558 10.3937 41.3004L11.2291 42.1146C11.3761 42.2577 11.5736 42.3369 11.7787 42.3352C11.9838 42.3335 12.18 42.251 12.3246 42.1056L13.8223 40.5939C13.9668 40.4472 14.0473 40.2492 14.0462 40.0433C14.0451 39.8374 13.9625 39.6402 13.8165 39.495C13.6705 39.3498 13.4729 39.2683 13.267 39.2684C13.0611 39.2684 12.8635 39.35 12.7176 39.4953V39.4952ZM12.7175 30.6699L11.7627 31.6337L11.48 31.3582C11.3314 31.2164 11.1329 31.1391 10.9276 31.1429C10.7223 31.1467 10.5268 31.2314 10.3836 31.3786C10.2405 31.5258 10.1612 31.7236 10.163 31.9289C10.1649 32.1342 10.2477 32.3305 10.3936 32.4751L11.229 33.2893C11.376 33.4323 11.5735 33.5115 11.7786 33.5098C11.9837 33.5081 12.1799 33.4256 12.3245 33.2802L13.8222 31.7686C13.9667 31.6218 14.0472 31.4238 14.0461 31.2179C14.045 31.012 13.9624 30.8148 13.8164 30.6696C13.6704 30.5244 13.4728 30.4429 13.2669 30.443C13.061 30.443 12.8634 30.5246 12.7175 30.6699ZM12.7175 13.0191L11.7627 13.9829L11.48 13.7074C11.3314 13.5657 11.1329 13.4883 10.9276 13.4921C10.7223 13.4959 10.5268 13.5806 10.3836 13.7278C10.2405 13.875 10.1612 14.0728 10.163 14.2781C10.1649 14.4834 10.2477 14.6797 10.3936 14.8243L11.229 15.6386C11.376 15.7816 11.5735 15.8608 11.7786 15.8591C11.9837 15.8574 12.1799 15.7749 12.3245 15.6295L13.8222 14.1179C13.9667 13.9711 14.0472 13.7732 14.0461 13.5672C14.045 13.3613 13.9624 13.1642 13.8164 13.0189C13.6704 12.8737 13.4728 12.7922 13.2669 12.7923C13.061 12.7923 12.8634 12.8739 12.7175 13.0192V13.0191ZM12.7176 21.8445L11.7628 22.8083L11.4801 22.5328C11.3315 22.3911 11.133 22.3137 10.9277 22.3175C10.7224 22.3213 10.5269 22.406 10.3837 22.5532C10.2406 22.7004 10.1613 22.8982 10.1631 23.1035C10.165 23.3088 10.2478 23.5051 10.3937 23.6497L11.2292 24.4639C11.3762 24.6069 11.5737 24.6861 11.7788 24.6844C11.9839 24.6827 12.1801 24.6002 12.3247 24.4548L13.8223 22.9432C13.9668 22.7964 14.0473 22.5984 14.0462 22.3925C14.0451 22.1866 13.9625 21.9895 13.8165 21.8442C13.6705 21.699 13.4729 21.6175 13.267 21.6176C13.0611 21.6176 12.8635 21.6992 12.7176 21.8445ZM32.3087 9.42578H27.0977C26.6166 10.1149 25.8212 10.5498 24.9346 10.5498H14.9205C14.0339 10.5498 13.2384 10.1149 12.7574 9.42578H7.54639C7.23438 9.42578 6.97754 9.68262 6.97754 9.99463V45.1301C6.97754 45.4423 7.23418 45.6989 7.54639 45.6989H32.3088C32.621 45.6989 32.8776 45.4423 32.8776 45.1301V44.7774H22.4954L18.2736 42.7934C16.5893 42.0018 16.5893 39.599 18.2736 38.8074L22.4954 36.8233H32.8776V9.99463C32.8776 9.68262 32.6208 9.42578 32.3088 9.42578H32.3087ZM9.73203 38.0041C9.61941 38.0044 9.51149 38.0493 9.43185 38.1289C9.35222 38.2086 9.30734 38.3165 9.30703 38.4291V43.1718C9.30734 43.2844 9.35222 43.3923 9.43185 43.472C9.51149 43.5516 9.61941 43.5965 9.73203 43.5968H14.4747C14.5873 43.5965 14.6952 43.5516 14.7749 43.472C14.8545 43.3923 14.8994 43.2844 14.8997 43.1718V38.4291C14.8994 38.3165 14.8545 38.2086 14.7749 38.1289C14.6952 38.0493 14.5873 38.0044 14.4747 38.0041H9.73203ZM9.73203 29.1787C9.61941 29.179 9.51149 29.2239 9.43185 29.3035C9.35222 29.3832 9.30734 29.4911 9.30703 29.6037V34.3464C9.30734 34.459 9.35222 34.5669 9.43185 34.6466C9.51149 34.7262 9.61941 34.7711 9.73203 34.7714H14.4747C14.5873 34.7711 14.6952 34.7262 14.7749 34.6465C14.8545 34.5669 14.8994 34.459 14.8997 34.3464V29.6037C14.8994 29.4911 14.8545 29.3832 14.7749 29.3035C14.6952 29.2239 14.5873 29.179 14.4747 29.1787H9.73203ZM9.73203 20.3533C9.61941 20.3536 9.51149 20.3985 9.43185 20.4781C9.35222 20.5578 9.30734 20.6657 9.30703 20.7783V25.521C9.30734 25.6336 9.35222 25.7415 9.43185 25.8212C9.51149 25.9008 9.61941 25.9457 9.73203 25.946H14.4747C14.5873 25.9457 14.6952 25.9008 14.7749 25.8211C14.8545 25.7415 14.8994 25.6336 14.8997 25.521V20.7783C14.8994 20.6657 14.8545 20.5578 14.7749 20.4781C14.6952 20.3985 14.5873 20.3536 14.4747 20.3533H9.73203ZM9.73203 11.5279C9.61941 11.5282 9.51149 11.5731 9.43185 11.6528C9.35222 11.7324 9.30734 11.8403 9.30703 11.9529V16.6956C9.30734 16.8082 9.35222 16.9161 9.43185 16.9958C9.51149 17.0754 9.61941 17.1203 9.73203 17.1206H14.4747C14.5873 17.1203 14.6952 17.0754 14.7749 16.9958C14.8545 16.9161 14.8994 16.8082 14.8997 16.6956V11.9529C14.8994 11.8403 14.8545 11.7324 14.7749 11.6528C14.6952 11.5731 14.5873 11.5282 14.4747 11.5279H9.73203ZM26.5418 11.8592H18.5706C18.3634 11.8592 18.1647 11.9415 18.0182 12.088C17.8717 12.2345 17.7894 12.4332 17.7894 12.6404C17.7894 12.8476 17.8717 13.0463 18.0182 13.1929C18.1647 13.3394 18.3634 13.4217 18.5706 13.4217H26.5418C26.749 13.4217 26.9477 13.3394 27.0942 13.1929C27.2407 13.0463 27.323 12.8476 27.323 12.6404C27.323 12.4332 27.2407 12.2345 27.0942 12.088C26.9477 11.9415 26.749 11.8592 26.5418 11.8592ZM30.548 15.2271H18.5706C18.3634 15.2271 18.1647 15.3094 18.0182 15.4559C17.8717 15.6024 17.7894 15.8011 17.7894 16.0083C17.7894 16.2155 17.8717 16.4142 18.0182 16.5607C18.1647 16.7072 18.3634 16.7896 18.5706 16.7896H30.548C30.7552 16.7896 30.954 16.7072 31.1005 16.5607C31.247 16.4142 31.3293 16.2155 31.3293 16.0083C31.3293 15.8011 31.247 15.6024 31.1005 15.4559C30.954 15.3094 30.7552 15.2271 30.548 15.2271ZM26.5418 20.6846H18.5706C18.3634 20.6846 18.1647 20.7669 18.0182 20.9134C17.8717 21.0599 17.7894 21.2586 17.7894 21.4658C17.7894 21.673 17.8717 21.8717 18.0182 22.0182C18.1647 22.1648 18.3634 22.2471 18.5706 22.2471H26.5418C26.749 22.2471 26.9477 22.1648 27.0942 22.0182C27.2407 21.8717 27.323 21.673 27.323 21.4658C27.323 21.2586 27.2407 21.0599 27.0942 20.9134C26.9477 20.7669 26.749 20.6846 26.5418 20.6846ZM30.548 24.0523H18.5706C18.3634 24.0523 18.1647 24.1347 18.0182 24.2812C17.8717 24.4277 17.7894 24.6264 17.7894 24.8336C17.7894 25.0408 17.8717 25.2395 18.0182 25.386C18.1647 25.5325 18.3634 25.6148 18.5706 25.6148H30.548C30.7552 25.6148 30.954 25.5325 31.1005 25.386C31.247 25.2395 31.3293 25.0408 31.3293 24.8336C31.3293 24.6264 31.247 24.4277 31.1005 24.2812C30.954 24.1347 30.7552 24.0523 30.548 24.0523ZM26.5418 29.51H18.5706C18.3634 29.51 18.1647 29.5923 18.0182 29.7388C17.8717 29.8853 17.7894 30.084 17.7894 30.2912C17.7894 30.4984 17.8717 30.6971 18.0182 30.8436C18.1647 30.9902 18.3634 31.0725 18.5706 31.0725H26.5418C26.749 31.0725 26.9477 30.9902 27.0942 30.8436C27.2407 30.6971 27.323 30.4984 27.323 30.2912C27.323 30.084 27.2407 29.8853 27.0942 29.7388C26.9477 29.5923 26.749 29.51 26.5418 29.51ZM30.548 32.8777H18.5706C18.3634 32.8777 18.1647 32.96 18.0182 33.1066C17.8717 33.2531 17.7894 33.4518 17.7894 33.659C17.7894 33.8662 17.8717 34.0649 18.0182 34.2114C18.1647 34.3579 18.3634 34.4402 18.5706 34.4402H30.548C30.7552 34.4402 30.954 34.3579 31.1005 34.2114C31.247 34.0649 31.3293 33.8662 31.3293 33.659C31.3293 33.4518 31.247 33.2531 31.1005 33.1066C30.954 32.96 30.7552 32.8777 30.548 32.8777Z" fill="#3498DB"/>
</svg>
